<svg width="20" height="20" viewBox="0 0 20 20" fill="none" xmlns="http://www.w3.org/2000/svg">
<path fill-rule="evenodd" clip-rule="evenodd" d="M10 20C15.5228 20 20 15.5228 20 10C20 4.47715 15.5228 0 10 0C4.47715 0 0 4.47715 0 10C0 15.5228 4.47715 20 10 20ZM13.2261 6.32955C13.4134 6.12672 13.6682 6.0087 13.9366 6.00045C14.1444 5.99416 14.3491 6.054 14.524 6.17218C14.699 6.29036 14.8361 6.46138 14.9175 6.66293C14.9988 6.86447 15.0207 7.08719 14.9802 7.30202C14.9396 7.51685 14.8386 7.71382 14.6903 7.86723C13.7876 8.82081 12.9222 9.77683 12.0517 10.7384C11.171 11.7114 10.285 12.69 9.35018 13.6775C9.17081 13.8683 8.93093 13.9824 8.67659 13.9981C8.42225 14.0138 8.17137 13.93 7.97209 13.7627L5.38817 11.5838C5.28212 11.4944 5.19381 11.3838 5.12829 11.2584C5.06278 11.1331 5.02133 10.9953 5.00633 10.853C4.99133 10.7108 5.00306 10.5668 5.04085 10.4293C5.07864 10.2918 5.14176 10.1635 5.2266 10.0517C5.31143 9.93994 5.41633 9.84687 5.53529 9.77783C5.65425 9.70878 5.78495 9.66511 5.91993 9.64931C6.0549 9.63351 6.19151 9.64588 6.32194 9.68573C6.45238 9.72558 6.57409 9.79213 6.68013 9.88156L8.52656 11.4419C9.18452 10.7337 9.82891 10.0249 10.4759 9.31326C11.3733 8.3261 12.2757 7.3335 13.2261 6.32955Z" fill="#EDBC33"/>
</svg>
