<svg width="8" height="9" viewBox="0 0 8 9" fill="none" xmlns="http://www.w3.org/2000/svg">
<path d="M5.81233 1.25425C6.31279 0.753791 7.12419 0.753791 7.62466 1.25425C8.12512 1.75471 8.12512 2.56612 7.62466 3.06658L2.18767 8.50356C1.68721 9.00402 0.875806 9.00402 0.375346 8.50356C-0.125115 8.0031 -0.125115 7.19169 0.375346 6.69123L5.81233 1.25425Z" fill="black"/>
<path d="M0.375345 1.25425C0.875806 0.753791 1.68721 0.753791 2.18767 1.25425L7.62466 6.69123C8.12512 7.19169 8.12512 8.0031 7.62466 8.50356C7.1242 9.00402 6.31279 9.00402 5.81233 8.50356L0.375345 3.06658C-0.125115 2.56612 -0.125115 1.75471 0.375345 1.25425Z" fill="black"/>
</svg>
