<svg width="20" height="19" viewBox="0 0 20 19" fill="none" xmlns="http://www.w3.org/2000/svg">
<path d="M15.1489 8.11702H19.0638V5.26596C19.0638 4.5 18.4255 3.8617 17.6596 3.8617H1.40426C0.638298 3.8617 0 4.5 0 5.26596V17.0106C0 17.7766 0.638298 18.4149 1.40426 18.4149H17.6596C18.4255 18.4149 19.0638 17.7766 19.0638 17.0106V12.4149H15.0213C13.7872 12.4149 12.8085 11.3936 12.8936 10.1596C12.8936 8.96808 13.9574 8.11702 15.1489 8.11702Z" fill="#303852"/>
<path d="M19.9149 12.3723H19.0213V8.11702H19.9149C19.9574 8.11702 20 8.15958 20 8.20213V12.3298C20 12.3723 19.9574 12.3723 19.9149 12.3723Z" fill="#303852"/>
<path d="M14.9362 11.2234C15.4767 11.2234 15.9149 10.7852 15.9149 10.2447C15.9149 9.70415 15.4767 9.26596 14.9362 9.26596C14.3956 9.26596 13.9574 9.70415 13.9574 10.2447C13.9574 10.7852 14.3956 11.2234 14.9362 11.2234Z" fill="#303852"/>
<path d="M16 2.54255C16.0851 2.54255 16.1277 2.5 16.1277 2.41489V1.39362C16.1277 0.712766 15.7447 0.159574 15.1915 0.0319149C15.0638 -0.0106383 14.8936 -0.0106383 14.7234 0.0319149L6.7234 2.24468C6.55319 2.28723 6.59574 2.5 6.76596 2.5H16V2.54255Z" fill="#303852"/>
</svg>
