<svg width="20" height="20" viewBox="0 0 20 20" fill="current" xmlns="http://www.w3.org/2000/svg">
<path d="M12.9752 7.51171L11.1429 9.37047L11.1429 1.16891C11.1429 0.517389 10.6329 1.26329e-06 9.99059 1.20714e-06C9.34832 1.15099e-06 8.83829 0.517388 8.83829 1.16891L8.83829 9.38964L7.00594 7.53087C6.77925 7.30092 6.4959 7.18595 6.19366 7.18595C5.89142 7.18595 5.60806 7.30092 5.38138 7.53087C4.92802 7.99077 4.92802 8.71895 5.38138 9.17885L9.17831 13.0114C9.63168 13.4713 10.3495 13.4713 10.8029 13.0114L14.5998 9.15969C15.0532 8.69979 15.0532 7.97161 14.5998 7.51171C14.1464 7.05181 13.4286 7.05181 12.9752 7.51171Z" fill="current"/>
<path d="M16.8477 11.3314C16.2054 11.3314 15.6954 11.8488 15.6954 12.5004L15.6954 15.6622L4.3046 15.6622L4.30461 12.5004C4.30461 11.8488 3.79457 11.3314 3.1523 11.3314C2.51004 11.3314 2 11.8488 2 12.5004L2 16.8311C2 17.4826 2.51004 18 3.1523 18L16.8477 18C17.49 18 18 17.4826 18 16.8311L18 12.5004C18 11.8488 17.49 11.3314 16.8477 11.3314Z" fill="current"/>
</svg>
