<svg width="50" height="56" viewBox="0 0 50 56" fill="none" xmlns="http://www.w3.org/2000/svg">
<path d="M15.7024 18.8575L21.4285 12.8602V39.3225C21.4285 41.4247 23.0223 43.094 25.0294 43.094C27.0365 43.094 28.6304 41.4247 28.6304 39.3225V12.7984L34.3565 18.7957C35.0648 19.5376 35.9503 19.9086 36.8948 19.9086C37.8393 19.9086 38.7248 19.5376 39.4332 18.7957C40.85 17.3118 40.85 14.9623 39.4332 13.4785L27.5678 1.1129C26.151 -0.370967 23.9078 -0.370967 22.491 1.1129L10.6256 13.5403C9.20887 15.0242 9.20887 17.3736 10.6256 18.8575C12.0424 20.3414 14.2856 20.3414 15.7024 18.8575Z" fill="#63517A"/>
<path d="M46.3991 34.4839C44.392 34.4839 42.7981 36.1533 42.7981 38.2554V48.457L7.20189 48.457L7.20189 38.2554C7.20189 36.1532 5.60803 34.4839 3.60094 34.4839C1.59386 34.4839 1.53694e-06 36.1532 1.18314e-06 38.2554L0 52.2285C-3.53805e-07 54.3306 1.59386 56 3.60094 56L46.3991 56C48.4061 56 50 54.3307 50 52.2285V38.2554C50 36.1533 48.4061 34.4839 46.3991 34.4839Z" fill="#63517A"/>
</svg>
