<svg width="20" height="20" viewBox="0 0 20 20" fill="none" xmlns="http://www.w3.org/2000/svg">
<path d="M19.7956 8.88015L16.9356 6.02012L11.5015 0.586056C11.0923 0.209196 10.5563 0 10 0C9.44368 0 8.90771 0.209196 8.49848 0.586056L3.06442 6.02012L0.20439 8.88015C0.0733815 9.01381 0 9.1935 0 9.38066C0 9.56781 0.0733815 9.74751 0.20439 9.88116C0.338046 10.0122 0.517741 10.0856 0.704896 10.0856C0.892051 10.0856 1.07175 10.0122 1.2054 9.88116L2.84992 8.23664V17.2457C2.83993 17.5301 2.88858 17.8135 2.99285 18.0783C3.09711 18.343 3.25475 18.5835 3.45596 18.7847C3.65717 18.9859 3.89764 19.1436 4.16241 19.2478C4.42717 19.3521 4.71057 19.4008 4.99494 19.3908H15.0051C15.2894 19.4008 15.5728 19.3521 15.8376 19.2478C16.1024 19.1436 16.3428 18.9859 16.544 18.7847C16.7452 18.5835 16.9029 18.343 17.0072 18.0783C17.1114 17.8135 17.1601 17.5301 17.1501 17.2457V8.23664L18.7946 9.88116C18.9283 10.0122 19.1079 10.0856 19.2951 10.0856C19.4823 10.0856 19.662 10.0122 19.7956 9.88116C19.9266 9.74751 20 9.56781 20 9.38066C20 9.1935 19.9266 9.01381 19.7956 8.88015ZM11.43 17.9608H8.56998V15.1007C8.56998 14.7215 8.72065 14.3577 8.98883 14.0895C9.25701 13.8214 9.62074 13.6707 10 13.6707C10.3793 13.6707 10.743 13.8214 11.0112 14.0895C11.2794 14.3577 11.43 14.7215 11.43 15.1007V17.9608Z" fill="#303852"/>
</svg>
