<svg width="50" height="46" viewBox="0 0 50 46" fill="none" xmlns="http://www.w3.org/2000/svg">
<path d="M33.4471 0C31.9117 2.96413e-07 30.4108 0.455359 29.1342 1.30848C27.8577 2.1616 26.8628 3.37415 26.2755 4.79276C25.6881 6.21137 25.5347 7.7723 25.8346 9.27813C26.1345 10.7839 26.8742 12.167 27.9602 13.2524C29.0462 14.3377 30.4298 15.0766 31.9358 15.3755C33.4418 15.6745 35.0026 15.5201 36.4209 14.9319C37.8391 14.3436 39.051 13.348 39.9034 12.0709C40.7557 10.7938 41.2101 9.29262 41.2092 7.75723C41.2075 5.69957 40.389 3.72675 38.9335 2.27222C37.4781 0.817685 35.5048 0.000425398 33.4471 0ZM37.2043 9.45337C36.1513 11.6157 30.5902 13.0948 30.5902 13.0948C30.5902 13.0948 28.3249 7.80385 29.378 5.64308C29.6282 5.1292 29.9771 4.66962 30.4049 4.29059C30.8327 3.91157 31.331 3.62051 31.8713 3.43405C32.4116 3.24759 32.9833 3.16936 33.5538 3.20385C34.1243 3.23834 34.6824 3.38486 35.1963 3.63504C35.7102 3.88523 36.1698 4.23419 36.5488 4.66198C36.9278 5.08978 37.2189 5.58805 37.4053 6.12833C37.5918 6.66861 37.67 7.24033 37.6355 7.81084C37.6011 8.38135 37.4545 8.93948 37.2043 9.45337Z" fill="#EDBC33"/>
<path d="M15.857 1.66895e-07C14.3254 0.000318129 12.8283 0.454787 11.5549 1.30594C10.2816 2.1571 9.28921 3.36671 8.7033 4.78184C8.1174 6.19696 7.96426 7.75405 8.26326 9.2562C8.56226 10.7584 9.29997 12.1381 10.3831 13.221C11.4662 14.3039 12.8462 15.0414 14.3484 15.34C15.8506 15.6387 17.4076 15.4853 18.8226 14.8991C20.2376 14.3129 21.4471 13.3203 22.2979 12.0467C23.1488 10.7732 23.603 9.27598 23.603 7.74436C23.603 6.72722 23.4026 5.72005 23.0133 4.78035C22.624 3.84066 22.0535 2.98686 21.3342 2.2677C20.6149 1.54855 19.7609 0.978139 18.8212 0.589043C17.8814 0.199947 16.8742 -0.000210989 15.857 1.66895e-07ZM18.9792 12.963C18.9792 12.963 13.4326 11.9373 12.2477 9.90031C11.9645 9.41683 11.7792 8.88229 11.7026 8.32722C11.6259 7.77216 11.6594 7.20743 11.801 6.66528C12.087 5.57036 12.7962 4.6339 13.7726 4.06189C14.7491 3.48989 15.9127 3.3292 17.0076 3.61518C18.1026 3.90115 19.039 4.61037 19.611 5.58681C20.7959 7.62057 18.9792 12.963 18.9792 12.963Z" fill="#9A83B7"/>
<path d="M15.7041 30.5322C11.2796 30.5322 8.17676 34.4261 8.17676 37.9003C8.17676 42.3232 11.2796 45.91 15.7041 45.91C20.1285 45.91 23.3922 42.4839 23.3922 38.0611C23.3922 33.6383 20.1253 30.5322 15.7041 30.5322ZM19.3681 40.3939C19.095 40.8868 18.7275 41.321 18.2865 41.6719C17.8456 42.0227 17.3399 42.2833 16.7983 42.4387C16.2567 42.5941 15.6897 42.6413 15.1299 42.5777C14.57 42.514 14.0282 42.3406 13.5353 42.0675C13.0424 41.7944 12.6081 41.4269 12.2573 40.986C11.9064 40.5451 11.6459 40.0394 11.4904 39.4978C11.335 38.9561 11.2878 38.3892 11.3515 37.8293C11.4152 37.2695 11.5885 36.7276 11.8616 36.2347C13.0079 34.1624 18.5578 32.9984 18.5578 32.9984C18.5578 32.9984 20.5144 38.3151 19.3681 40.3939Z" fill="#71B078"/>
<path d="M33.5914 30.6173C32.0839 30.6173 30.6102 31.0643 29.3568 31.9019C28.1033 32.7394 27.1264 33.9298 26.5494 35.3226C25.9725 36.7154 25.8216 38.2479 26.1157 39.7265C26.4098 41.2051 27.1357 42.5632 28.2017 43.6292C29.2677 44.6952 30.6258 45.4211 32.1044 45.7152C33.583 46.0093 35.1155 45.8584 36.5083 45.2815C37.9011 44.7046 39.0915 43.7276 39.929 42.4741C40.7666 41.2207 41.2136 39.747 41.2136 38.2395C41.2136 36.218 40.4105 34.2792 38.9811 32.8498C37.5517 31.4204 35.6129 30.6173 33.5914 30.6173ZM35.8808 41.8408C35.4108 42.1207 34.8903 42.3054 34.349 42.3842C33.8077 42.463 33.2561 42.4344 32.7258 42.3C32.1955 42.1657 31.6969 41.9282 31.2584 41.6011C30.8199 41.274 30.4502 40.8638 30.1702 40.3938C28.9917 38.4179 30.72 33.1913 30.72 33.1913C30.72 33.1913 36.1429 34.1559 37.3213 36.1237C37.6028 36.5935 37.7888 37.1142 37.8687 37.656C37.9486 38.1978 37.9209 38.75 37.7871 39.2811C37.6533 39.8121 37.416 40.3116 37.0889 40.7508C36.7618 41.19 36.3513 41.5604 35.8808 41.8408Z" fill="#D3584B"/>
<path d="M42.1977 15.1785C40.6568 15.1785 39.1505 15.6354 37.8693 16.4915C36.5881 17.3476 35.5895 18.5644 34.9998 19.988C34.4101 21.4116 34.2558 22.9781 34.5564 24.4894C34.8571 26.0007 35.5991 27.3889 36.6887 28.4785C37.7783 29.5681 39.1665 30.3101 40.6778 30.6107C42.1891 30.9114 43.7556 30.7571 45.1792 30.1674C46.6028 29.5777 47.8196 28.5791 48.6757 27.2979C49.5318 26.0167 49.9887 24.5104 49.9887 22.9695C49.9887 21.9463 49.7872 20.9332 49.3957 19.988C49.0041 19.0427 48.4302 18.1839 47.7068 17.4604C46.9833 16.7369 46.1245 16.1631 45.1792 15.7715C44.234 15.38 43.2209 15.1785 42.1977 15.1785ZM42.381 27.5402C40.0048 27.5402 36.2829 23.2379 36.2829 23.2379C36.2829 23.2379 40.0048 18.9357 42.381 18.9357C43.522 18.9357 44.6163 19.389 45.4232 20.1958C46.23 21.0026 46.6833 22.0969 46.6833 23.2379C46.6833 24.379 46.23 25.4733 45.4232 26.2801C44.6163 27.0869 43.522 27.5402 42.381 27.5402Z" fill="#6DB5D1"/>
<path d="M7.67042 15.2396C6.15335 15.2396 4.67036 15.6894 3.40896 16.5323C2.14757 17.3751 1.16443 18.5731 0.583879 19.9746C0.00332348 21.3762 -0.148576 22.9185 0.147388 24.4064C0.443353 25.8943 1.17389 27.261 2.24662 28.3338C3.31934 29.4065 4.68608 30.137 6.17399 30.433C7.66191 30.729 9.20417 30.5771 10.6058 29.9965C12.0073 29.416 13.2053 28.4328 14.0481 27.1714C14.891 25.91 15.3408 24.427 15.3408 22.91C15.3408 20.8757 14.5327 18.9247 13.0942 17.4862C11.6557 16.0477 9.70473 15.2396 7.67042 15.2396ZM7.65273 27.0498C6.54369 27.0282 5.48736 26.5725 4.71068 25.7805C3.934 24.9886 3.49892 23.9236 3.49892 22.8143C3.49892 21.7051 3.934 20.6401 4.71068 19.8481C5.48736 19.0561 6.54369 18.6004 7.65273 18.5788C9.99196 18.5788 13.6575 22.8151 13.6575 22.8151C13.6575 22.8151 9.99678 27.0498 7.65273 27.0498Z" fill="#315B9C"/>
</svg>
