<svg width="21" height="20" viewBox="0 0 21 20" fill="current" xmlns="http://www.w3.org/2000/svg">
<path d="M17.1087 4H3.8913C3.52231 4 3.16842 4.14969 2.9075 4.41613C2.64658 4.68258 2.5 5.04396 2.5 5.42077V15.5792C2.5 15.956 2.64658 16.3174 2.9075 16.5839C3.16842 16.8503 3.52231 17 3.8913 17H17.1087C17.4777 17 17.8316 16.8503 18.0925 16.5839C18.3534 16.3174 18.5 15.956 18.5 15.5792V5.42077C18.5 5.04396 18.3534 4.68258 18.0925 4.41613C17.8316 4.14969 17.4777 4 17.1087 4ZM15.933 7.95683L11.453 10.571C11.1637 10.7433 10.8349 10.834 10.5 10.834C10.1651 10.834 9.83625 10.7433 9.54696 10.571L5.06696 7.95683C4.90665 7.86431 4.78881 7.71066 4.73926 7.52956C4.68971 7.34846 4.71249 7.15469 4.80261 6.99071C4.84806 6.90931 4.90882 6.83789 4.98141 6.78058C5.054 6.72326 5.13698 6.68117 5.22556 6.65674C5.31415 6.63231 5.40659 6.62602 5.49757 6.63823C5.58854 6.65043 5.67625 6.6809 5.75565 6.72787L10.2357 9.34208C10.3167 9.38747 10.4076 9.41126 10.5 9.41126C10.5924 9.41126 10.6833 9.38747 10.7643 9.34208L15.2443 6.72787C15.3237 6.6809 15.4115 6.65043 15.5024 6.63823C15.5934 6.62602 15.6859 6.63231 15.7744 6.65674C15.863 6.68117 15.946 6.72326 16.0186 6.78058C16.0912 6.83789 16.1519 6.90931 16.1974 6.99071C16.2875 7.15469 16.3103 7.34846 16.2607 7.52956C16.2112 7.71066 16.0933 7.86431 15.933 7.95683Z" fill="current"/>
</svg>
