<svg width="21" height="22" viewBox="0 0 21 22" fill="none" xmlns="http://www.w3.org/2000/svg">
<path d="M1.18877 16.7077L1.18874 16.7077L1.18651 16.7097C0.920178 16.9491 0.82879 17.3296 0.957881 17.6644C1.0869 17.999 1.40817 18.2196 1.76594 18.2196H19.8013C20.1723 18.2196 20.499 17.9843 20.6188 17.6363C20.74 17.2875 20.6241 16.8992 20.3341 16.671L20.2722 16.7495L20.3345 16.6713C20.2729 16.6222 18.643 15.3136 18.643 12.7619V8.8052C18.643 4.44599 15.097 0.9 10.7378 0.9C6.37861 0.9 2.83262 4.44599 2.83262 8.8052V13.0117C2.83262 14.0938 2.42592 15.0151 2.01413 15.6701C1.80847 15.9972 1.60234 16.2566 1.44692 16.4347C1.30009 16.603 1.20018 16.697 1.18967 16.7068C1.18898 16.7075 1.18868 16.7078 1.18877 16.7077ZM9.10613 19.3682C8.62752 19.3682 8.24024 19.7555 8.24024 20.2341C8.24024 20.7127 8.62752 21.1 9.10613 21.1H12.4646C12.9432 21.1 13.3305 20.7127 13.3305 20.2341C13.3305 19.7555 12.9432 19.3682 12.4646 19.3682H9.10613Z" fill="#303852" stroke="#303852" stroke-width="0.2"/>
</svg>
