<svg width="18" height="20" viewBox="0 0 18 20" fill="none" xmlns="http://www.w3.org/2000/svg">
<path d="M17.4249 14.8345C17.2465 15.5749 16.5014 16.0312 15.7603 15.8552L17.4249 14.8345ZM17.4249 14.8345C17.5986 14.0931 17.142 13.348 16.4016 13.1697C15.9445 13.063 15.5774 13.1563 15.3052 13.3499C15.0288 13.5465 14.8371 13.8562 14.7571 14.1996C14.6771 14.543 14.7119 14.9069 14.8712 15.2068C15.0282 15.5023 15.3124 15.7486 15.7603 15.8552L17.4249 14.8345ZM1.90166 12.9409L1.90176 12.9409C2.27446 13.0292 2.54675 13.2395 2.76135 13.567C2.95754 13.8898 3.0052 14.2597 2.92492 14.6031C2.74664 15.3455 2.00184 15.8001 1.26014 15.6263C0.517726 15.448 0.0631696 14.7031 0.237072 13.9613C0.412962 13.2216 1.16004 12.7647 1.90166 12.9409ZM15.7608 7.05927L15.7601 7.05911C15.0181 6.88336 14.5632 6.14127 14.737 5.39679C14.9154 4.65449 15.6601 4.19997 16.4017 4.37371C17.142 4.55207 17.5986 5.29715 17.4249 6.0385C17.2463 6.77943 16.501 7.23726 15.7608 7.05927ZM6.83071 11.0214C6.50303 10.3759 6.50633 9.59452 6.84447 8.95622H6.92649V8.8099C7.33596 8.15641 8.05156 7.75721 8.83096 7.75721C9.61001 7.75721 10.3313 8.15843 10.7379 8.81599V8.84405L10.7767 8.88285L10.7772 8.88368C11.174 9.57011 11.172 10.4341 10.7747 11.1213L10.7646 11.1389L10.7639 11.141L10.7631 11.1423C10.3613 11.8249 9.62594 12.2453 8.83096 12.2453C8.03393 12.2453 7.30312 11.8252 6.89859 11.1419L6.89808 11.141L6.8582 11.0214H6.83071ZM2.75481 4.99479L2.75532 4.99562C2.95508 5.31915 3.00526 5.6948 2.9249 6.03851C2.74894 6.77393 2.00368 7.23535 1.25992 7.06155C0.520411 6.88569 0.0631511 6.13863 0.237057 5.3967C0.412898 4.65708 1.15985 4.20011 1.90141 4.37612C2.24544 4.45894 2.55763 4.67194 2.75481 4.99479ZM3.49414 4.54244L3.49356 4.5415C3.4245 4.42995 3.34666 4.32697 3.26317 4.23246C4.23208 3.29401 5.39309 2.61956 6.69165 2.25926C6.93531 3.02887 7.58424 3.62503 8.39962 3.78348V6.92034C7.60198 7.03197 6.88524 7.44824 6.3915 8.07518L3.68666 6.49475C3.71735 6.41114 3.7432 6.32566 3.76422 6.23835L3.76424 6.23825C3.89816 5.68069 3.81606 5.06897 3.49414 4.54244ZM3.76417 14.8032L3.76431 14.8026C3.86536 14.3792 3.84344 13.9278 3.68716 13.505L6.3915 11.9248C6.88524 12.5518 7.60198 12.968 8.39962 13.0797V16.2167C7.61333 16.3702 6.98369 16.9306 6.71963 17.6589C5.45018 17.3107 4.25172 16.6348 3.30452 15.7194C3.5201 15.4611 3.68012 15.1508 3.76417 14.8032ZM13.8977 5.19697L13.8976 5.19736C13.7966 5.62083 13.8185 6.0722 13.9748 6.49504L11.2704 8.07518C10.7767 7.44824 10.0599 7.03197 9.26231 6.92034V3.78348C10.0777 3.62503 10.7266 3.02887 10.9703 2.25926C12.2685 2.61947 13.4293 3.29367 14.398 4.23175C14.1619 4.49906 13.9867 4.8274 13.8977 5.19697ZM7.45136 1.5796C7.45136 0.819207 8.06849 0.2 8.83097 0.2C9.59344 0.2 10.2106 0.819207 10.2106 1.5796C10.2106 2.34615 9.59231 2.95907 8.82623 2.9592C8.06605 2.95686 7.45136 2.33998 7.45136 1.5796ZM7.45136 18.4204C7.45136 17.6538 8.06975 17.0408 8.83594 17.0408C9.59601 17.0433 10.2106 17.6601 10.2106 18.4204C10.2106 19.1808 9.59344 19.8 8.83097 19.8C8.06849 19.8 7.45136 19.1808 7.45136 18.4204ZM1.13158 12.0826C0.759644 10.726 0.750685 9.2736 1.1101 7.9131C1.88525 8.08095 2.70086 7.82102 3.23621 7.23282L5.95359 8.82114C5.64697 9.57092 5.64697 10.4291 5.95359 11.1789L3.23617 12.7672C2.92838 12.4291 2.52974 12.2007 2.10134 12.099C1.77264 12.0202 1.44221 12.0194 1.13158 12.0826ZM14.0541 13.5508C13.6866 14.3177 13.8015 15.1794 14.2536 15.8173C13.3256 16.6746 12.1954 17.3155 10.9423 17.6589C10.6782 16.9306 10.0486 16.3702 9.26231 16.2167V13.0797C10.06 12.968 10.7767 12.5517 11.2704 11.9248L14.0541 13.5508ZM16.5517 7.91302C16.93 9.34833 16.8995 10.8843 16.4641 12.3043C15.78 12.1877 15.0905 12.3809 14.5717 12.8526L11.7083 11.1789C12.015 10.4291 12.015 9.57092 11.7083 8.82114L14.4258 7.2328C14.7336 7.57092 15.1322 7.79929 15.5606 7.901C15.8978 7.98188 16.2354 7.98137 16.5517 7.91302Z" fill="#303852" stroke="#F2EEF9" stroke-width="0.4"/>
</svg>
