<svg width="20" height="17" viewBox="0 0 20 17" fill="current" xmlns="http://www.w3.org/2000/svg">
<path d="M0 0.45824V10.2257C0 11.5047 1.04651 12.5512 2.32558 12.5512H7.32022L7.77813 11.4278L11.7009 7.50497L10.373 6.22358L13.8637 2.60614C14.0772 2.38359 14.3339 2.21196 14.606 2.09917C14.8784 1.98615 15.1656 1.93056 15.4523 1.93056C15.729 1.93056 16.0065 1.98266 16.2704 2.08777C16.5281 2.19033 16.7725 2.34661 16.9811 2.54754C17.3437 2.39731 17.7356 2.31847 18.1397 2.31847V0.458008L0 0.45824ZM6.74418 6.85358H2.55814V5.69079H6.74418V6.85358ZM10.2325 4.06289H2.55814V2.9001H10.2325V4.06289Z" fill="current"/>
<path d="M19.4551 4.02638C19.0918 3.66312 18.6158 3.48149 18.1395 3.48149C17.6649 3.48149 17.1897 3.66242 16.827 4.02358L16.1818 3.39149C15.9774 3.19126 15.7083 3.09172 15.446 3.09219C15.1802 3.09172 14.9079 3.19382 14.7023 3.39986L11.8965 6.20567L12.7186 7.02777L15.4467 4.2994L16.0044 4.84591L8.76627 12.084L6.9572 16.5238L11.4184 14.694L19.4518 6.66056L19.4553 6.6573C20.1816 5.93079 20.1816 4.75289 19.4551 4.02638ZM18.6435 5.82428L18.6295 5.83847L17.4816 6.98637L16.4949 5.99986L17.6463 4.8487C17.7776 4.71707 17.953 4.64451 18.1393 4.64451C18.3258 4.64451 18.5009 4.71707 18.6325 4.84893C18.9011 5.11707 18.9049 5.55149 18.6435 5.82428Z" fill="current"/>
</svg>
