<svg width="20" height="20" viewBox="0 0 20 20" fill="none" xmlns="http://www.w3.org/2000/svg">
<path d="M19.7345 5.78355C19.4225 5.06171 18.5627 4.51383 17.8209 4.56582C17.0791 4.61781 16.2212 4.32787 15.8413 3.96595C15.4614 3.60403 15.1535 2.74822 15.1815 2.00238C15.2095 1.25655 14.6356 0.420734 13.9018 0.128798C13.1679 -0.163138 12.1761 0.0588133 11.6882 0.61669C11.2004 1.17457 10.3825 1.58448 9.86265 1.60047C9.34277 1.61647 8.51495 1.22656 8.01106 0.682676C7.50717 0.138796 6.50539 -0.0551616 5.78355 0.25677C5.06171 0.568701 4.50983 1.42851 4.56182 2.17035C4.61381 2.91218 4.32387 3.77 3.96195 4.14991C3.60003 4.52983 2.74422 4.83376 2.00238 4.80977C1.26055 4.78577 0.420733 5.35765 0.128798 6.09148C-0.163138 6.82532 0.0588133 7.8171 0.61669 8.305C1.17457 8.79289 1.58448 9.61071 1.60047 10.1286C1.61647 10.6465 1.22856 11.4763 0.682676 11.9802C0.136796 12.4841 -0.0591607 13.4839 0.25677 14.2097C0.5727 14.9355 1.42851 15.4834 2.17035 15.4314C2.91218 15.3794 3.76999 15.6694 4.14991 16.0313C4.52983 16.3932 4.83776 17.245 4.80977 17.9909C4.78177 18.7367 5.35565 19.5725 6.09148 19.8644C6.82732 20.1564 7.8171 19.9344 8.30499 19.3766C8.79289 18.8187 9.60871 18.4088 10.1286 18.4008C10.6485 18.3928 11.4763 18.7787 11.9842 19.3226C12.4921 19.8664 13.4919 20.0524 14.2137 19.7405C14.9355 19.4285 15.4874 18.5727 15.4354 17.8309C15.3834 17.0891 15.6734 16.2312 16.0353 15.8513C16.3972 15.4714 17.251 15.1675 17.9969 15.1975C18.7427 15.2275 19.5785 14.6516 19.8704 13.9158C20.1624 13.1799 19.9444 12.1901 19.3826 11.6982C18.8207 11.2064 18.4108 10.3985 18.3968 9.87265C18.3828 9.34677 18.7707 8.52495 19.3186 8.02106C19.5916 7.72513 19.7755 7.35811 19.8491 6.96226C19.9226 6.56641 19.8829 6.15782 19.7345 5.78355ZM11.5363 13.5698C10.8297 13.8753 10.0483 13.9644 9.29109 13.8257C8.53386 13.687 7.83479 13.3268 7.28232 12.7907C6.72985 12.2546 6.34881 11.5667 6.18742 10.814C6.02603 10.0613 6.09153 9.27759 6.37565 8.56211C6.65977 7.84664 7.14973 7.23152 7.78354 6.79458C8.41735 6.35764 9.16652 6.11852 9.93627 6.10748C10.706 6.09643 11.4617 6.31396 12.1078 6.73254C12.7539 7.15112 13.2613 7.75193 13.5658 8.45896C13.9741 9.40518 13.9903 10.4747 13.6109 11.4328C13.2316 12.391 12.4876 13.1595 11.5423 13.5698H11.5363Z" fill="#303852"/>
</svg>
