<svg width="19" height="20" viewBox="0 0 19 20" fill="none" xmlns="http://www.w3.org/2000/svg">
<path fill-rule="evenodd" clip-rule="evenodd" d="M9.06429 0C12.0226 0 14.4207 2.39813 14.4207 5.3567C14.4207 6.78935 13.858 8.09044 12.942 9.05187C12.9009 7.79185 12.0756 6.72066 10.9413 6.31332C11.3114 5.88165 11.5349 5.32046 11.5349 4.7073C11.5349 3.34259 10.4288 2.23667 9.06429 2.23667C7.69983 2.23667 6.59367 3.34259 6.59367 4.7073C6.59367 5.32046 6.81723 5.88165 7.18731 6.31332C6.053 6.72066 5.22768 7.79185 5.18662 9.05187C4.27056 8.09044 3.70784 6.78935 3.70784 5.3567C3.70784 2.39813 6.10598 0 9.06429 0ZM13.9521 15.8235H15.3558V14.3518H9.71091V15.8235H11.1522V20H6.97591V15.8235H8.41768V14.3518H2.77252V15.8235H4.17652V20H0V15.8235H1.47928V13.7052C1.47928 13.3483 1.76901 13.0586 2.12616 13.0586H8.41768V11.7684C8.41768 10.9177 9.71091 10.9177 9.71091 11.7684V13.0586H16.0024C16.3593 13.0586 16.6491 13.3483 16.6491 13.7052V15.8235H18.1283V20H13.9521V15.8235ZM5.93945 9.11626C6.79188 9.89595 7.89907 10.3286 9.06429 10.3286C10.2295 10.3286 11.3367 9.89595 12.1891 9.11626C11.9134 7.46385 11.0483 7.12039 9.70888 6.63954C10.2087 6.05604 10.8115 5.53642 10.8115 4.7073C10.8115 3.74181 10.0298 2.96009 9.06429 2.96009C8.09881 2.96009 7.31709 3.74181 7.31709 4.7073C7.31709 5.53642 7.9196 6.05604 8.41971 6.63954C7.08034 7.12039 6.21523 7.46385 5.93945 9.11626Z" fill="#303852"/>
</svg>
